<?xml version="1.0" encoding="iso-8859-1"?>
<!-- Generator: Adobe Illustrator 19.0.0, SVG Export Plug-In . SVG Version: 6.00 Build 0)  -->
<svg version="1.1" id="Layer_1" xmlns="http://www.w3.org/2000/svg" xmlns:xlink="http://www.w3.org/1999/xlink" x="0px" y="0px"
	 viewBox="0 0 512 512" style="enable-background:new 0 0 512 512;" xml:space="preserve">
<circle style="fill:#FFDC64;" cx="432.552" cy="207.448" r="79.448"/>
<circle style="fill:#FFF082;" cx="432.552" cy="207.448" r="52.966"/>
<path style="fill:#F0C087;" d="M411.975,202.975c7.451-4.998,12.223-13.677,11.712-23.433
	c-0.749-14.322-13.603-25.059-27.944-25.059H61.793v211.862h183.881c14.34,0,27.194-10.739,27.945-25.059
	c0.38-7.251-2.158-13.907-6.546-18.898c-3.101-3.529-0.866-9.007,3.831-9.007h10.08c14.34,0,27.194-10.739,27.945-25.059
	c0.38-7.251-2.159-13.907-6.546-18.898c-3.101-3.529-0.866-9.007,3.831-9.007h89.529c14.34,0,27.193-10.738,27.944-25.058
	c0.511-9.757-4.262-18.436-11.712-23.433C408.724,209.741,408.724,205.155,411.975,202.975z"/>
<rect x="61.793" y="154.483" style="fill:#E6AF78;" width="26.483" height="211.862"/>
<path style="fill:#E4EAF8;" d="M61.793,384H8.828C3.953,384,0,380.047,0,375.172V145.655c0-4.875,3.953-8.828,8.828-8.828h52.966
	c4.875,0,8.828,3.953,8.828,8.828v229.517C70.621,380.047,66.668,384,61.793,384z"/>
<circle style="fill:#959CB5;" cx="35.31" cy="348.69" r="13.241"/>
<g>
	<path style="fill:#E6AF78;" d="M306.214,260.414h-41.386c-4.875,0-8.828,3.953-8.828,8.828c0,4.875,3.953,8.828,8.828,8.828h42.626
		c-1.135-3.211-2.869-6.14-5.071-8.647C299.282,265.894,301.516,260.414,306.214,260.414z"/>
	<path style="fill:#E6AF78;" d="M267.072,322.388c-3.101-3.529-0.866-9.009,3.831-9.009H256c-4.875,0-8.828,3.953-8.828,8.828
		c0,4.875,3.953,8.828,8.828,8.828h16.143C271.009,327.823,269.276,324.895,267.072,322.388z"/>
	<path style="fill:#E6AF78;" d="M411.976,211.922c-3.252-2.182-3.252-6.766,0-8.947c1.844-1.237,3.518-2.706,4.994-4.354H273.655
		c-4.875,0-8.828,3.953-8.828,8.828s3.953,8.828,8.828,8.828H416.97C415.493,214.627,413.818,213.159,411.976,211.922z"/>
</g>
<g>
</g>
<g>
</g>
<g>
</g>
<g>
</g>
<g>
</g>
<g>
</g>
<g>
</g>
<g>
</g>
<g>
</g>
<g>
</g>
<g>
</g>
<g>
</g>
<g>
</g>
<g>
</g>
<g>
</g>
</svg>
