<?xml version="1.0" encoding="iso-8859-1"?>
<!-- Generator: Adobe Illustrator 19.0.0, SVG Export Plug-In . SVG Version: 6.00 Build 0)  -->
<svg version="1.1" id="Layer_1" xmlns="http://www.w3.org/2000/svg" xmlns:xlink="http://www.w3.org/1999/xlink" x="0px" y="0px"
	 viewBox="0 0 511.999 511.999" style="enable-background:new 0 0 511.999 511.999;" xml:space="preserve">
<path style="fill:#3D6DEB;" d="M407.541,129.238c-0.017-0.24-0.017-0.48-0.039-0.719c-0.054-0.544-0.145-1.077-0.233-1.613
	c-0.046-0.279-0.076-0.561-0.13-0.839c-0.091-0.458-0.215-0.905-0.331-1.354c-0.09-0.355-0.169-0.714-0.274-1.067
	c-0.108-0.355-0.245-0.7-0.367-1.048c-0.154-0.436-0.298-0.874-0.475-1.302c-0.108-0.264-0.242-0.516-0.36-0.776
	c-0.223-0.492-0.443-0.984-0.7-1.464c-0.117-0.22-0.257-0.429-0.382-0.646c-0.282-0.492-0.56-0.986-0.879-1.461
	c-0.24-0.358-0.507-0.695-0.764-1.04c-0.232-0.311-0.443-0.631-0.688-0.932c-0.536-0.658-1.107-1.288-1.709-1.892
	c-0.005-0.003-0.008-0.008-0.012-0.012L294.552,7.429c-9.903-9.905-25.962-9.905-35.867,0c-9.905,9.903-9.905,25.962,0,35.867
	l59.398,59.398c-101.091,9.905-188.336,84.738-209.151,189.381c-6.657,33.471-5.916,67.393,1.571,99.654
	c0.046,0.2,0.085,0.402,0.132,0.602c1.069,4.55,2.276,9.064,3.61,13.542c0.025,0.083,0.046,0.167,0.071,0.25
	c0.289,0.967,0.609,1.924,0.911,2.884c0.629,2.005,1.28,4,1.96,5.987c2.516,7.335,5.397,14.548,8.63,21.617
	c0.544,1.192,1.087,2.387,1.652,3.571c8.08,16.925,18.203,32.971,30.265,47.75c0.041,0.052,0.081,0.105,0.123,0.157
	c4.612,5.639,9.502,11.095,14.673,16.343c4.962,5.042,11.514,7.568,18.073,7.568c3.642,0,7.277-0.808,10.652-2.37
	c0.856-0.396,1.691-0.839,2.506-1.336c0.223-0.135,0.457-0.25,0.673-0.392c1.398-0.911,2.726-1.975,3.962-3.191
	c9.357-9.213,10.05-23.903,2.004-33.926c-0.534-0.67-1.111-1.315-1.726-1.939c-1.354-1.376-2.683-2.768-3.99-4.18
	c-40.478-43.726-57.653-104.101-45.998-162.693c16.435-82.622,85.683-141.645,165.661-148.91l-65.662,65.664
	c-9.905,9.905-9.905,25.962,0,35.867c4.952,4.952,11.443,7.428,17.933,7.428c6.489,0,12.982-2.477,17.933-7.428l105.512-105.514
	c0.646-0.634,1.253-1.305,1.829-2.009c0.135-0.166,0.252-0.342,0.384-0.509c0.379-0.485,0.751-0.974,1.094-1.488
	c0.188-0.281,0.35-0.575,0.526-0.862c0.252-0.414,0.511-0.822,0.741-1.253c0.208-0.389,0.385-0.791,0.571-1.19
	c0.162-0.347,0.336-0.685,0.484-1.04c0.213-0.517,0.391-1.043,0.57-1.571c0.086-0.257,0.188-0.507,0.267-0.769
	c0.215-0.707,0.389-1.42,0.538-2.139c0.022-0.1,0.054-0.191,0.074-0.291c0.002-0.007,0.002-0.015,0.003-0.024
	c0.164-0.832,0.289-1.669,0.369-2.509c0.042-0.441,0.042-0.879,0.063-1.317c0.017-0.377,0.052-0.754,0.051-1.131
	C407.624,130.392,407.581,129.815,407.541,129.238z"/>
<g>
</g>
<g>
</g>
<g>
</g>
<g>
</g>
<g>
</g>
<g>
</g>
<g>
</g>
<g>
</g>
<g>
</g>
<g>
</g>
<g>
</g>
<g>
</g>
<g>
</g>
<g>
</g>
<g>
</g>
</svg>
